<svg id="Capa_1" enable-background="new 0 0 512 512" height="512" viewBox="0 0 512 512" width="512" xmlns="http://www.w3.org/2000/svg"><g><g><g><path d="m475.349 144.257h-438.698v180.123c0 71.555 58.007 129.562 129.562 129.562h179.574c71.555 0 129.562-58.007 129.562-129.562z" fill="#95d6a4"/></g><g><path d="m413.063 144.257v164.851c0 45.59-36.958 82.548-82.548 82.548h-226.588c-19.678 0-38.327-4.395-55.032-12.244 20.693 44.037 65.441 74.531 117.318 74.531h179.574c71.555 0 129.562-58.007 129.562-129.562v-180.124z" fill="#78c2a4"/></g></g><g><path d="m329.608 119.6c-3.265 0-6.301-2.076-7.372-5.346l-19.851-60.656c-3.138-9.591-12.027-16.034-22.118-16.034h-48.536c-10.091 0-18.979 6.443-22.118 16.034l-19.851 60.656c-1.332 4.071-5.706 6.292-9.786 4.959-4.072-1.332-6.292-5.714-4.959-9.786l19.851-60.656c5.231-15.983 20.045-26.723 36.863-26.723h48.536c16.818 0 31.632 10.739 36.863 26.723l19.851 60.656c1.332 4.072-.888 8.453-4.96 9.786-.8.263-1.614.387-2.413.387z" fill="#78c2a4"/></g><g><path d="m497 156.475h-21.651l-30.474-14.975-31.812 14.975h-398.063c-8.284 0-15-6.716-15-15v-45.137c0-8.284 6.716-15 15-15h482c8.284 0 15 6.716 15 15v45.137c0 8.284-6.716 15-15 15z" fill="#95d6a4"/></g><path d="m497 81.338h-12.662v33.289c0 8.284-6.716 15-15 15h-469.338v11.847c0 8.284 6.716 15 15 15h482c8.284 0 15-6.716 15-15v-45.136c0-8.284-6.716-15-15-15z" fill="#78c2a4"/><g><circle cx="125.185" cy="453.942" fill="#365e7d" r="36.009"/></g><g><path d="m138.473 420.476c1.634 4.113 2.542 8.593 2.542 13.288 0 19.887-16.122 36.009-36.009 36.009-4.695 0-9.175-.908-13.288-2.542 5.289 13.308 18.274 22.721 33.466 22.721 19.887 0 36.009-16.122 36.009-36.009.001-15.193-9.412-28.179-22.72-33.467z" fill="#2b4d66"/></g><g><circle cx="386.815" cy="453.942" fill="#365e7d" r="36.009"/></g><g><path d="m400.103 420.476c1.634 4.113 2.542 8.593 2.542 13.288 0 19.887-16.122 36.009-36.009 36.009-4.695 0-9.175-.908-13.288-2.542 5.289 13.308 18.274 22.721 33.466 22.721 19.887 0 36.009-16.122 36.009-36.009.001-15.193-9.412-28.179-22.72-33.467z" fill="#2b4d66"/></g><g fill="#e7ecf6"><path d="m287.28 251.368c3.581.056 6.93-2.664 7.599-6.195l5.029-24.456c.863-4.196-1.839-8.298-6.036-9.161-4.193-.864-8.299 1.839-9.161 6.036l-.921 4.477-4.321-7.483c-6.076-10.524-16.959-16.808-29.111-16.808s-23.036 6.283-29.111 16.808l-22.802 39.494c-2.142 3.711-.871 8.455 2.839 10.597 3.645 2.123 8.443.905 10.597-2.839l22.802-39.494c3.272-5.667 9.132-9.05 15.675-9.05s12.404 3.383 15.675 9.05l3.807 6.595-3.321-1.22c-4.026-1.48-8.48.586-9.957 4.606-1.478 4.021.585 8.479 4.606 9.957l23.436 8.611c.867.317 1.773.475 2.676.475z"/><path d="m327.541 297.849-16.637-28.817c-2.141-3.711-6.889-4.982-10.597-2.839-3.71 2.142-4.982 6.886-2.839 10.597l16.637 28.817c3.272 5.667 3.272 12.434 0 18.101-2.302 3.987-5.888 6.837-10.089 8.18l2.071-1.783c3.247-2.795 3.614-7.693.818-10.94-2.794-3.246-7.694-3.613-10.939-.818l-18.923 16.289c-1.712 1.474-2.697 3.621-2.697 5.879 0 2.259.985 4.405 2.697 5.879l18.923 16.289c1.465 1.261 3.265 1.878 5.057 1.878 2.18 0 4.348-.914 5.883-2.696 2.795-3.247 2.428-8.145-.819-10.94l-3.393-2.921c10.402-1.289 19.492-7.263 24.848-16.54 6.075-10.525 6.075-23.091-.001-33.615z"/><path d="m250.04 332.757h-47.753c-6.396 0-12.183-3.265-15.481-8.734-3.125-5.181-3.476-11.388-1.005-16.807l1 4.861c.756 3.669 3.986 6.196 7.591 6.196.518 0 1.043-.052 1.571-.161 4.197-.863 6.899-4.965 6.036-9.161l-5.03-24.456c-.456-2.212-1.853-4.117-3.826-5.215s-4.328-1.281-6.448-.504l-23.436 8.61c-4.021 1.478-6.084 5.935-4.606 9.957s5.932 6.085 9.957 4.606l3.055-1.123c-4.587 10.077-3.939 21.602 1.855 31.209 6.132 10.166 16.886 16.235 28.767 16.235h47.753c4.285 0 7.757-3.473 7.757-7.757s-3.473-7.756-7.757-7.756z"/></g></g></svg>